<mxfile host="65bd71144e">
    <diagram id="B9SX_loh46KMbBYnWu5M" name="Home / Login/Signup">
        <mxGraphModel dx="329" dy="430" grid="1" gridSize="10" guides="1" tooltips="1" connect="1" arrows="1" fold="1" page="1" pageScale="1" pageWidth="850" pageHeight="1100" math="0" shadow="0">
            <root>
                <mxCell id="0"/>
                <mxCell id="1" parent="0"/>
                <mxCell id="3" value="" style="rounded=0;whiteSpace=wrap;html=1;" parent="1" vertex="1">
                    <mxGeometry x="20" y="76" width="405" height="560" as="geometry"/>
                </mxCell>
                <mxCell id="5" value="Home&amp;nbsp; &amp;nbsp; &amp;nbsp; &amp;nbsp;(Dashboard)&amp;nbsp; &amp;nbsp;(Create Listing)&amp;nbsp; Donate&amp;nbsp; Login/Signup" style="rounded=0;whiteSpace=wrap;html=1;fillColor=#a20025;fontColor=#ffffff;strokeColor=#6F0000;align=right;" parent="1" vertex="1">
                    <mxGeometry x="27.5" y="91" width="390" height="70" as="geometry"/>
                </mxCell>
                <mxCell id="6" value="Home" style="rounded=0;whiteSpace=wrap;html=1;" parent="1" vertex="1">
                    <mxGeometry x="107.5" y="30" width="230" height="40" as="geometry"/>
                </mxCell>
                <mxCell id="7" value="Listing" style="rounded=0;whiteSpace=wrap;html=1;fillColor=#1ba1e2;fontColor=#ffffff;strokeColor=#006EAF;" parent="1" vertex="1">
                    <mxGeometry x="160" y="180" width="240" height="60" as="geometry"/>
                </mxCell>
                <mxCell id="8" value="Search / Filters" style="rounded=0;whiteSpace=wrap;html=1;fillColor=#1ba1e2;fontColor=#ffffff;strokeColor=#006EAF;" parent="1" vertex="1">
                    <mxGeometry x="30" y="180" width="110" height="410" as="geometry"/>
                </mxCell>
                <mxCell id="9" value="Listing" style="rounded=0;whiteSpace=wrap;html=1;fillColor=#1ba1e2;fontColor=#ffffff;strokeColor=#006EAF;" parent="1" vertex="1">
                    <mxGeometry x="160" y="460" width="240" height="60" as="geometry"/>
                </mxCell>
                <mxCell id="10" value="Listing" style="rounded=0;whiteSpace=wrap;html=1;fillColor=#1ba1e2;fontColor=#ffffff;strokeColor=#006EAF;" parent="1" vertex="1">
                    <mxGeometry x="160" y="390" width="240" height="60" as="geometry"/>
                </mxCell>
                <mxCell id="11" value="Listing" style="rounded=0;whiteSpace=wrap;html=1;fillColor=#1ba1e2;fontColor=#ffffff;strokeColor=#006EAF;" parent="1" vertex="1">
                    <mxGeometry x="160" y="320" width="240" height="60" as="geometry"/>
                </mxCell>
                <mxCell id="12" value="Listing" style="rounded=0;whiteSpace=wrap;html=1;fillColor=#1ba1e2;fontColor=#ffffff;strokeColor=#006EAF;" parent="1" vertex="1">
                    <mxGeometry x="160" y="250" width="240" height="60" as="geometry"/>
                </mxCell>
                <mxCell id="13" value="Listing" style="rounded=0;whiteSpace=wrap;html=1;fillColor=#1ba1e2;fontColor=#ffffff;strokeColor=#006EAF;" parent="1" vertex="1">
                    <mxGeometry x="160" y="530" width="240" height="60" as="geometry"/>
                </mxCell>
                <mxCell id="AKt2OWwqDddk7LuRfZJ3-13" value="" style="rounded=0;whiteSpace=wrap;html=1;" parent="1" vertex="1">
                    <mxGeometry x="430" y="76" width="405" height="560" as="geometry"/>
                </mxCell>
                <mxCell id="AKt2OWwqDddk7LuRfZJ3-14" value="Home&amp;nbsp; &amp;nbsp; &amp;nbsp; &amp;nbsp;(Dashboard)&amp;nbsp; &amp;nbsp;(Create Listing)&amp;nbsp; Donate&amp;nbsp; Login/Signup" style="rounded=0;whiteSpace=wrap;html=1;fillColor=#a20025;fontColor=#ffffff;strokeColor=#6F0000;align=right;" parent="1" vertex="1">
                    <mxGeometry x="437.5" y="91" width="390" height="70" as="geometry"/>
                </mxCell>
                <mxCell id="AKt2OWwqDddk7LuRfZJ3-15" value="Login / Signup" style="rounded=0;whiteSpace=wrap;html=1;" parent="1" vertex="1">
                    <mxGeometry x="517.5" y="30" width="230" height="40" as="geometry"/>
                </mxCell>
                <mxCell id="AKt2OWwqDddk7LuRfZJ3-16" value="Login / Signup form" style="rounded=0;whiteSpace=wrap;html=1;fillColor=#1ba1e2;fontColor=#ffffff;strokeColor=#006EAF;" parent="1" vertex="1">
                    <mxGeometry x="440" y="180" width="370" height="90" as="geometry"/>
                </mxCell>
            </root>
        </mxGraphModel>
    </diagram>
    <diagram id="z6fKnHopgMtBliQPzYuU" name="Dashboard">
        <mxGraphModel dx="329" dy="430" grid="1" gridSize="10" guides="1" tooltips="1" connect="1" arrows="1" fold="1" page="1" pageScale="1" pageWidth="850" pageHeight="1100" math="0" shadow="0">
            <root>
                <mxCell id="0"/>
                <mxCell id="1" parent="0"/>
                <mxCell id="yOwEDX2_ZHTeextzaBkp-1" value="" style="rounded=0;whiteSpace=wrap;html=1;" parent="1" vertex="1">
                    <mxGeometry x="445" y="66" width="405" height="560" as="geometry"/>
                </mxCell>
                <mxCell id="yOwEDX2_ZHTeextzaBkp-2" value="Dashboard / Your Pets" style="rounded=0;whiteSpace=wrap;html=1;" parent="1" vertex="1">
                    <mxGeometry x="540" y="20" width="230" height="40" as="geometry"/>
                </mxCell>
                <mxCell id="yOwEDX2_ZHTeextzaBkp-3" value="Home&amp;nbsp; &amp;nbsp; &amp;nbsp; &amp;nbsp;Dashboard&amp;nbsp; &amp;nbsp; Create Listing&amp;nbsp; &amp;nbsp; Donate&amp;nbsp; &amp;nbsp;Logout" style="rounded=0;whiteSpace=wrap;html=1;fillColor=#a20025;fontColor=#ffffff;strokeColor=#6F0000;align=right;" parent="1" vertex="1">
                    <mxGeometry x="452.5" y="81" width="390" height="70" as="geometry"/>
                </mxCell>
                <mxCell id="yOwEDX2_ZHTeextzaBkp-4" value="Your Dashbord" style="rounded=0;whiteSpace=wrap;html=1;fillColor=#1ba1e2;fontColor=#ffffff;strokeColor=#006EAF;align=left;verticalAlign=top;" parent="1" vertex="1">
                    <mxGeometry x="460" y="170" width="370" height="410" as="geometry"/>
                </mxCell>
                <mxCell id="yOwEDX2_ZHTeextzaBkp-5" value="" style="rounded=0;whiteSpace=wrap;html=1;fillColor=#d80073;fontColor=#ffffff;strokeColor=#A50040;" parent="1" vertex="1">
                    <mxGeometry x="470" y="210" width="350" height="350" as="geometry"/>
                </mxCell>
                <mxCell id="yOwEDX2_ZHTeextzaBkp-6" value="Profile" style="rounded=0;whiteSpace=wrap;html=1;" parent="1" vertex="1">
                    <mxGeometry x="574" y="180" width="77.5" height="30" as="geometry"/>
                </mxCell>
                <mxCell id="yOwEDX2_ZHTeextzaBkp-7" value="Your Pets" style="rounded=0;whiteSpace=wrap;html=1;" parent="1" vertex="1">
                    <mxGeometry x="660" y="180" width="77.5" height="30" as="geometry"/>
                </mxCell>
                <mxCell id="yOwEDX2_ZHTeextzaBkp-8" value="Favorites" style="rounded=0;whiteSpace=wrap;html=1;" parent="1" vertex="1">
                    <mxGeometry x="742.5" y="180" width="77.5" height="30" as="geometry"/>
                </mxCell>
                <mxCell id="yOwEDX2_ZHTeextzaBkp-9" value="" style="rounded=0;whiteSpace=wrap;html=1;" parent="1" vertex="1">
                    <mxGeometry x="20" y="66" width="405" height="560" as="geometry"/>
                </mxCell>
                <mxCell id="yOwEDX2_ZHTeextzaBkp-10" value="Dashboard / Profile" style="rounded=0;whiteSpace=wrap;html=1;" parent="1" vertex="1">
                    <mxGeometry x="115" y="20" width="230" height="40" as="geometry"/>
                </mxCell>
                <mxCell id="yOwEDX2_ZHTeextzaBkp-11" value="Home&amp;nbsp; &amp;nbsp; &amp;nbsp; &amp;nbsp;Dashboard&amp;nbsp; &amp;nbsp; Create Listing&amp;nbsp; &amp;nbsp; Donate&amp;nbsp; &amp;nbsp;Logout" style="rounded=0;whiteSpace=wrap;html=1;fillColor=#a20025;fontColor=#ffffff;strokeColor=#6F0000;align=right;" parent="1" vertex="1">
                    <mxGeometry x="27.5" y="81" width="390" height="70" as="geometry"/>
                </mxCell>
                <mxCell id="yOwEDX2_ZHTeextzaBkp-12" value="Your Dashbord" style="rounded=0;whiteSpace=wrap;html=1;fillColor=#1ba1e2;fontColor=#ffffff;strokeColor=#006EAF;align=left;verticalAlign=top;" parent="1" vertex="1">
                    <mxGeometry x="35" y="170" width="370" height="410" as="geometry"/>
                </mxCell>
                <mxCell id="yOwEDX2_ZHTeextzaBkp-13" value="" style="rounded=0;whiteSpace=wrap;html=1;fillColor=#d80073;fontColor=#ffffff;strokeColor=#A50040;" parent="1" vertex="1">
                    <mxGeometry x="45" y="210" width="350" height="350" as="geometry"/>
                </mxCell>
                <mxCell id="yOwEDX2_ZHTeextzaBkp-14" value="Profile" style="rounded=0;whiteSpace=wrap;html=1;" parent="1" vertex="1">
                    <mxGeometry x="149" y="180" width="77.5" height="30" as="geometry"/>
                </mxCell>
                <mxCell id="yOwEDX2_ZHTeextzaBkp-15" value="Your Pets" style="rounded=0;whiteSpace=wrap;html=1;" parent="1" vertex="1">
                    <mxGeometry x="235" y="180" width="77.5" height="30" as="geometry"/>
                </mxCell>
                <mxCell id="yOwEDX2_ZHTeextzaBkp-16" value="Favorites" style="rounded=0;whiteSpace=wrap;html=1;" parent="1" vertex="1">
                    <mxGeometry x="317.5" y="180" width="77.5" height="30" as="geometry"/>
                </mxCell>
                <mxCell id="yOwEDX2_ZHTeextzaBkp-17" value="" style="rounded=0;whiteSpace=wrap;html=1;" parent="1" vertex="1">
                    <mxGeometry x="870" y="66" width="405" height="560" as="geometry"/>
                </mxCell>
                <mxCell id="yOwEDX2_ZHTeextzaBkp-18" value="Dashboard / Adopt" style="rounded=0;whiteSpace=wrap;html=1;" parent="1" vertex="1">
                    <mxGeometry x="965" y="20" width="230" height="40" as="geometry"/>
                </mxCell>
                <mxCell id="yOwEDX2_ZHTeextzaBkp-19" value="Home&amp;nbsp; &amp;nbsp; &amp;nbsp; &amp;nbsp;Dashboard&amp;nbsp; &amp;nbsp; Create Listing&amp;nbsp; &amp;nbsp; Donate&amp;nbsp; &amp;nbsp;Logout" style="rounded=0;whiteSpace=wrap;html=1;fillColor=#a20025;fontColor=#ffffff;strokeColor=#6F0000;align=right;" parent="1" vertex="1">
                    <mxGeometry x="877.5" y="81" width="390" height="70" as="geometry"/>
                </mxCell>
                <mxCell id="yOwEDX2_ZHTeextzaBkp-20" value="Your Dashbord" style="rounded=0;whiteSpace=wrap;html=1;fillColor=#1ba1e2;fontColor=#ffffff;strokeColor=#006EAF;align=left;verticalAlign=top;" parent="1" vertex="1">
                    <mxGeometry x="885" y="170" width="370" height="410" as="geometry"/>
                </mxCell>
                <mxCell id="yOwEDX2_ZHTeextzaBkp-21" value="" style="rounded=0;whiteSpace=wrap;html=1;fillColor=#d80073;fontColor=#ffffff;strokeColor=#A50040;" parent="1" vertex="1">
                    <mxGeometry x="895" y="210" width="350" height="350" as="geometry"/>
                </mxCell>
                <mxCell id="yOwEDX2_ZHTeextzaBkp-22" value="Profile" style="rounded=0;whiteSpace=wrap;html=1;" parent="1" vertex="1">
                    <mxGeometry x="999" y="180" width="77.5" height="30" as="geometry"/>
                </mxCell>
                <mxCell id="yOwEDX2_ZHTeextzaBkp-23" value="Your Pets" style="rounded=0;whiteSpace=wrap;html=1;" parent="1" vertex="1">
                    <mxGeometry x="1085" y="180" width="77.5" height="30" as="geometry"/>
                </mxCell>
                <mxCell id="yOwEDX2_ZHTeextzaBkp-24" value="Favorites" style="rounded=0;whiteSpace=wrap;html=1;" parent="1" vertex="1">
                    <mxGeometry x="1167.5" y="180" width="77.5" height="30" as="geometry"/>
                </mxCell>
                <mxCell id="yOwEDX2_ZHTeextzaBkp-25" value="User Information&amp;nbsp;" style="rounded=0;whiteSpace=wrap;html=1;" parent="1" vertex="1">
                    <mxGeometry x="60" y="230" width="320" height="160" as="geometry"/>
                </mxCell>
                <mxCell id="yOwEDX2_ZHTeextzaBkp-26" value="Avatar" style="ellipse;whiteSpace=wrap;html=1;fillColor=#60a917;fontColor=#ffffff;strokeColor=#2D7600;" parent="1" vertex="1">
                    <mxGeometry x="70" y="240" width="50" height="50" as="geometry"/>
                </mxCell>
                <mxCell id="yOwEDX2_ZHTeextzaBkp-27" value="Edit / Update" style="rounded=0;whiteSpace=wrap;html=1;" parent="1" vertex="1">
                    <mxGeometry x="290" y="400" width="82.5" height="20" as="geometry"/>
                </mxCell>
                <mxCell id="yOwEDX2_ZHTeextzaBkp-28" value="Security:&amp;nbsp;&lt;br&gt;Change password" style="rounded=0;whiteSpace=wrap;html=1;" parent="1" vertex="1">
                    <mxGeometry x="60" y="430" width="320" height="120" as="geometry"/>
                </mxCell>
                <mxCell id="yOwEDX2_ZHTeextzaBkp-29" value="Enter New Pet Form:&amp;nbsp;" style="rounded=0;whiteSpace=wrap;html=1;" parent="1" vertex="1">
                    <mxGeometry x="480" y="230" width="330" height="90" as="geometry"/>
                </mxCell>
                <mxCell id="yOwEDX2_ZHTeextzaBkp-30" value="Pet 1" style="rounded=0;whiteSpace=wrap;html=1;" parent="1" vertex="1">
                    <mxGeometry x="480" y="330" width="330" height="80" as="geometry"/>
                </mxCell>
                <mxCell id="yOwEDX2_ZHTeextzaBkp-31" value="Pet 2" style="rounded=0;whiteSpace=wrap;html=1;" parent="1" vertex="1">
                    <mxGeometry x="480" y="420" width="330" height="80" as="geometry"/>
                </mxCell>
                <mxCell id="yOwEDX2_ZHTeextzaBkp-32" value="Pic" style="ellipse;whiteSpace=wrap;html=1;aspect=fixed;fillColor=#60a917;fontColor=#ffffff;strokeColor=#2D7600;" parent="1" vertex="1">
                    <mxGeometry x="490" y="340" width="60" height="60" as="geometry"/>
                </mxCell>
                <mxCell id="yOwEDX2_ZHTeextzaBkp-33" value="Pic" style="ellipse;whiteSpace=wrap;html=1;aspect=fixed;fillColor=#60a917;fontColor=#ffffff;strokeColor=#2D7600;" parent="1" vertex="1">
                    <mxGeometry x="490" y="430" width="60" height="60" as="geometry"/>
                </mxCell>
                <mxCell id="yOwEDX2_ZHTeextzaBkp-34" value="Saved Pet 1" style="rounded=0;whiteSpace=wrap;html=1;" parent="1" vertex="1">
                    <mxGeometry x="910" y="230" width="320" height="80" as="geometry"/>
                </mxCell>
                <mxCell id="yOwEDX2_ZHTeextzaBkp-36" value="Saved Pet 3" style="rounded=0;whiteSpace=wrap;html=1;" parent="1" vertex="1">
                    <mxGeometry x="910" y="410" width="320" height="80" as="geometry"/>
                </mxCell>
                <mxCell id="yOwEDX2_ZHTeextzaBkp-37" value="Saved Pet 2" style="rounded=0;whiteSpace=wrap;html=1;" parent="1" vertex="1">
                    <mxGeometry x="910" y="320" width="320" height="80" as="geometry"/>
                </mxCell>
                <mxCell id="yOwEDX2_ZHTeextzaBkp-38" value="" style="shape=sumEllipse;perimeter=ellipsePerimeter;whiteSpace=wrap;html=1;backgroundOutline=1;fillColor=#a20025;fontColor=#ffffff;strokeColor=#6F0000;" parent="1" vertex="1">
                    <mxGeometry x="780" y="336" width="20" height="20" as="geometry"/>
                </mxCell>
                <mxCell id="yOwEDX2_ZHTeextzaBkp-39" value="" style="shape=sumEllipse;perimeter=ellipsePerimeter;whiteSpace=wrap;html=1;backgroundOutline=1;fillColor=#a20025;fontColor=#ffffff;strokeColor=#6F0000;" parent="1" vertex="1">
                    <mxGeometry x="780" y="430" width="20" height="20" as="geometry"/>
                </mxCell>
                <mxCell id="yOwEDX2_ZHTeextzaBkp-40" value="" style="shape=sumEllipse;perimeter=ellipsePerimeter;whiteSpace=wrap;html=1;backgroundOutline=1;fillColor=#a20025;fontColor=#ffffff;strokeColor=#6F0000;" parent="1" vertex="1">
                    <mxGeometry x="1200" y="240" width="20" height="20" as="geometry"/>
                </mxCell>
                <mxCell id="yOwEDX2_ZHTeextzaBkp-41" value="" style="shape=sumEllipse;perimeter=ellipsePerimeter;whiteSpace=wrap;html=1;backgroundOutline=1;fillColor=#a20025;fontColor=#ffffff;strokeColor=#6F0000;" parent="1" vertex="1">
                    <mxGeometry x="1200" y="330" width="20" height="20" as="geometry"/>
                </mxCell>
                <mxCell id="yOwEDX2_ZHTeextzaBkp-42" value="" style="shape=sumEllipse;perimeter=ellipsePerimeter;whiteSpace=wrap;html=1;backgroundOutline=1;fillColor=#a20025;fontColor=#ffffff;strokeColor=#6F0000;" parent="1" vertex="1">
                    <mxGeometry x="1200" y="420" width="20" height="20" as="geometry"/>
                </mxCell>
                <mxCell id="I6SoWycbpjjyNKy9GJZO-1" value="" style="shape=image;html=1;verticalLabelPosition=bottom;verticalAlign=top;imageAspect=1;aspect=fixed;image=img/clipart/Gear_128x128.png" parent="1" vertex="1">
                    <mxGeometry x="780" y="373.27" width="26" height="30.5" as="geometry"/>
                </mxCell>
                <mxCell id="I6SoWycbpjjyNKy9GJZO-2" value="" style="shape=image;html=1;verticalLabelPosition=bottom;verticalAlign=top;imageAspect=1;aspect=fixed;image=img/clipart/Gear_128x128.png" parent="1" vertex="1">
                    <mxGeometry x="780" y="459.5" width="26" height="30.5" as="geometry"/>
                </mxCell>
            </root>
        </mxGraphModel>
    </diagram>
    <diagram id="kp18QXYanu7havBnI3MZ" name="Create Listing / Donate">
        <mxGraphModel dx="1169" dy="802" grid="1" gridSize="10" guides="1" tooltips="1" connect="1" arrows="1" fold="1" page="1" pageScale="1" pageWidth="850" pageHeight="1100" math="0" shadow="0">
            <root>
                <mxCell id="0"/>
                <mxCell id="1" parent="0"/>
                <mxCell id="OWxddHEDCkwlpGEqiQx5-1" value="" style="rounded=0;whiteSpace=wrap;html=1;" parent="1" vertex="1">
                    <mxGeometry x="10" y="106" width="405" height="560" as="geometry"/>
                </mxCell>
                <mxCell id="OWxddHEDCkwlpGEqiQx5-2" value="Home&amp;nbsp; &amp;nbsp; &amp;nbsp; &amp;nbsp;(Dashboard)&amp;nbsp; &amp;nbsp;(Create Listing)&amp;nbsp; Donate&amp;nbsp; Login/Signup" style="rounded=0;whiteSpace=wrap;html=1;fillColor=#a20025;fontColor=#ffffff;strokeColor=#6F0000;align=right;" parent="1" vertex="1">
                    <mxGeometry x="17.5" y="121" width="390" height="70" as="geometry"/>
                </mxCell>
                <mxCell id="OWxddHEDCkwlpGEqiQx5-3" value="Create Listing" style="rounded=0;whiteSpace=wrap;html=1;" parent="1" vertex="1">
                    <mxGeometry x="110" y="60" width="230" height="40" as="geometry"/>
                </mxCell>
                <mxCell id="OWxddHEDCkwlpGEqiQx5-4" value="Listing Form" style="rounded=0;whiteSpace=wrap;html=1;fillColor=#1ba1e2;fontColor=#ffffff;strokeColor=#006EAF;" parent="1" vertex="1">
                    <mxGeometry x="30" y="210" width="360" height="160" as="geometry"/>
                </mxCell>
                <mxCell id="OWxddHEDCkwlpGEqiQx5-11" value="Upload Photos" style="rounded=0;whiteSpace=wrap;html=1;" parent="1" vertex="1">
                    <mxGeometry x="130" y="340" width="120" height="30" as="geometry"/>
                </mxCell>
                <mxCell id="OWxddHEDCkwlpGEqiQx5-12" value="Edit" style="rounded=0;whiteSpace=wrap;html=1;" parent="1" vertex="1">
                    <mxGeometry x="260" y="340" width="120" height="30" as="geometry"/>
                </mxCell>
                <mxCell id="KGtSNqMXyQ4CRxs2_kVW-1" value="" style="rounded=0;whiteSpace=wrap;html=1;" parent="1" vertex="1">
                    <mxGeometry x="430" y="106" width="405" height="560" as="geometry"/>
                </mxCell>
                <mxCell id="KGtSNqMXyQ4CRxs2_kVW-2" value="Home&amp;nbsp; &amp;nbsp; &amp;nbsp; &amp;nbsp;(Dashboard)&amp;nbsp; &amp;nbsp;(Create Listing)&amp;nbsp; Donate&amp;nbsp; Login/Signup" style="rounded=0;whiteSpace=wrap;html=1;fillColor=#a20025;fontColor=#ffffff;strokeColor=#6F0000;align=right;" parent="1" vertex="1">
                    <mxGeometry x="437.5" y="121" width="390" height="70" as="geometry"/>
                </mxCell>
                <mxCell id="KGtSNqMXyQ4CRxs2_kVW-3" value="Donate" style="rounded=0;whiteSpace=wrap;html=1;" parent="1" vertex="1">
                    <mxGeometry x="530" y="60" width="230" height="40" as="geometry"/>
                </mxCell>
                <mxCell id="KGtSNqMXyQ4CRxs2_kVW-7" value="Donate to a Local Shelter or check out one of these foundations" style="rounded=0;whiteSpace=wrap;html=1;fillColor=#1ba1e2;fontColor=#ffffff;strokeColor=#006EAF;" parent="1" vertex="1">
                    <mxGeometry x="439.5" y="210" width="382.5" height="150" as="geometry"/>
                </mxCell>
                <mxCell id="KGtSNqMXyQ4CRxs2_kVW-9" value="Help keep this website online!&amp;nbsp;&lt;br&gt;Stripe" style="rounded=0;whiteSpace=wrap;html=1;fillColor=#1ba1e2;fontColor=#ffffff;strokeColor=#006EAF;" parent="1" vertex="1">
                    <mxGeometry x="441.25" y="380" width="382.5" height="150" as="geometry"/>
                </mxCell>
            </root>
        </mxGraphModel>
    </diagram>
</mxfile>